<?xml version="1.0" encoding="iso-8859-1"?>
<!-- Uploaded to: SVG Repo, www.svgrepo.com, Generator: SVG Repo Mixer Tools -->
<svg version="1.1" id="Layer_1" xmlns="http://www.w3.org/2000/svg" xmlns:xlink="http://www.w3.org/1999/xlink" 
	 viewBox="0 0 512 512" xml:space="preserve">
<path style="fill:#4A7DBA;" d="M256,11.13c-86.061,0-155.826,69.766-155.826,155.826h311.652
	C411.826,80.896,342.061,11.13,256,11.13z"/>
<path style="fill:#C8F4DE;" d="M412.939,166.957H99.061c-48.562,0-87.93,39.368-87.93,87.93v23.374h111.304v44.522h267.13v-44.522
	H500.87v-23.374C500.87,206.325,461.501,166.957,412.939,166.957z"/>
<rect x="122.435" y="278.261" style="fill:#87DFD6;" width="267.13" height="44.522"/>
<polygon style="fill:#FFFE9F;" points="367.304,322.783 144.696,322.783 100.174,500.87 300.522,500.87 367.304,500.87 
	412.939,500.87 "/>
<path d="M422.607,156.299C417.091,69.187,344.479,0,256,0S94.909,69.187,89.393,156.299C39.29,161.174,0,203.526,0,254.887v23.374
	c0,6.146,4.984,11.13,11.13,11.13h100.174v33.391c0,6.146,4.984,11.13,11.13,11.13h8.005L89.376,498.169
	c-0.831,3.326-0.085,6.847,2.025,9.55c2.109,2.701,5.346,4.281,8.773,4.281h200.348c6.146,0,11.13-4.984,11.13-11.13
	c0-6.146-4.984-11.13-11.13-11.13H114.43l38.957-155.826h205.281l39.93,155.826h-31.293c-6.146,0-11.13,4.984-11.13,11.13
	c0,6.146,4.984,11.13,11.13,11.13h45.635c3.439,0,6.685-1.589,8.793-4.306c2.108-2.716,2.843-6.255,1.988-9.587l-42.074-164.194
	h7.919c6.146,0,11.13-4.984,11.13-11.13v-33.391H500.87c6.146,0,11.13-4.984,11.13-11.13v-23.374
	C512,203.526,472.71,161.174,422.607,156.299z M256,22.261c76.04,0,138.569,58.961,144.272,133.565H111.728
	C117.431,81.222,179.96,22.261,256,22.261z M489.739,267.13H389.565H256c-6.146,0-11.13,4.984-11.13,11.13
	c0,6.146,4.984,11.13,11.13,11.13h122.435v22.261h-11.13H144.696h-11.13v-22.261h55.652c6.146,0,11.13-4.984,11.13-11.13
	c0-6.146-4.984-11.13-11.13-11.13h-66.783H22.261v-12.243c0-42.348,34.452-76.8,76.8-76.8h1.113h311.652h1.113
	c42.348,0,76.8,34.452,76.8,76.8V267.13z"/>
<path d="M122.435,200.348c-12.275,0-22.261,9.986-22.261,22.261s9.986,22.261,22.261,22.261s22.261-9.986,22.261-22.261
	S134.709,200.348,122.435,200.348z"/>
<path d="M189.217,200.348c-12.275,0-22.261,9.986-22.261,22.261s9.986,22.261,22.261,22.261s22.261-9.986,22.261-22.261
	S201.492,200.348,189.217,200.348z"/>
<path d="M389.565,200.348c-12.275,0-22.261,9.986-22.261,22.261s9.986,22.261,22.261,22.261c12.275,0,22.261-9.986,22.261-22.261
	S401.84,200.348,389.565,200.348z"/>
<path d="M322.783,200.348c-12.275,0-22.261,9.986-22.261,22.261s9.986,22.261,22.261,22.261s22.261-9.986,22.261-22.261
	S335.057,200.348,322.783,200.348z"/>
<path d="M256,200.348c-12.275,0-22.261,9.986-22.261,22.261S243.725,244.87,256,244.87s22.261-9.986,22.261-22.261
	S268.275,200.348,256,200.348z"/>
<path d="M340.09,491.619c-0.601-0.412-1.247-0.746-1.926-1.024c-0.668-0.278-1.368-0.501-2.08-0.633c-1.436-0.29-2.905-0.29-4.341,0
	c-0.712,0.132-1.414,0.355-2.081,0.633c-0.679,0.278-1.323,0.612-1.924,1.024c-0.613,0.401-1.181,0.868-1.693,1.38
	c-2.07,2.07-3.261,4.931-3.261,7.869c0,2.927,1.19,5.799,3.261,7.868c0.512,0.513,1.08,0.981,1.693,1.38
	c0.601,0.401,1.245,0.746,1.924,1.024c0.669,0.278,1.369,0.501,2.081,0.634c0.712,0.145,1.447,0.223,2.17,0.223
	c0.722,0,1.458-0.078,2.17-0.223c0.712-0.134,1.414-0.356,2.08-0.634c0.679-0.278,1.325-0.623,1.926-1.024
	c0.612-0.4,1.18-0.867,1.692-1.38c2.07-2.068,3.261-4.94,3.261-7.867c0-2.94-1.191-5.799-3.262-7.869
	C341.269,492.488,340.703,492.021,340.09,491.619z"/>
<path d="M232.881,274.009c-0.278-0.679-0.623-1.323-1.024-1.924c-0.4-0.613-0.867-1.181-1.38-1.693
	c-0.512-0.512-1.08-0.979-1.692-1.38c-0.601-0.4-1.247-0.746-1.926-1.024c-0.668-0.278-1.368-0.501-2.08-0.633
	c-1.436-0.29-2.916-0.29-4.341,0c-0.712,0.132-1.414,0.355-2.093,0.633c-0.669,0.278-1.313,0.624-1.914,1.024
	c-0.613,0.401-1.181,0.868-1.693,1.38s-0.979,1.08-1.38,1.693c-0.4,0.601-0.746,1.246-1.024,1.924
	c-0.278,0.669-0.501,1.369-0.633,2.081c-0.146,0.712-0.223,1.447-0.223,2.17c0,0.722,0.077,1.458,0.223,2.17
	c0.132,0.712,0.355,1.414,0.633,2.08c0.278,0.679,0.624,1.325,1.024,1.926c0.401,0.612,0.868,1.18,1.38,1.692
	c0.512,0.513,1.08,0.981,1.693,1.38c0.601,0.401,1.245,0.746,1.914,1.024c0.679,0.278,1.38,0.501,2.093,0.646
	c0.712,0.145,1.447,0.211,2.17,0.211c2.927,0,5.799-1.191,7.868-3.262c0.513-0.512,0.981-1.08,1.38-1.692
	c0.401-0.601,0.746-1.247,1.024-1.926c0.278-0.668,0.49-1.368,0.634-2.08c0.145-0.713,0.223-1.448,0.223-2.17
	c0-0.723-0.078-1.459-0.223-2.17C233.371,275.378,233.159,274.677,232.881,274.009z"/>
</svg>